# xmcd
#
# Track frame offsets:
#	150
#	18781
#	39013
#	55782
#	74722
#	91859
#	105656
#	117524
#	136934
#	141398
#	154913
#
# Disc length: 2190 seconds
#
# Revision: 1
# Processed by: cddbd v1.5.2PL0 Copyright (c) Steve Scherf et al.
# Submitted via: audiograbber 1.83.01
#
DISCID=91088c0b
DTITLE=Barry Big B Brenner - Old School Blues
DYEAR=2009
DGENRE=Blues
TTITLE0=You Don't Know My Mind
TTITLE1=Denver Blues
TTITLE2=Bye Bye Baby Blues
TTITLE3=Spike Driver Blues
TTITLE4=Cat Pause
TTITLE5=Mister Ticket Agent
TTITLE6=Step It Up And Go
TTITLE7=Silver Street Blues
TTITLE8=Grand Canyon Mules
TTITLE9=Hard Pushin' Papa
TTITLE10=I'm Worried 
EXTD=
EXTT0=
EXTT1=
EXTT2=
EXTT3=
EXTT4=
EXTT5=
EXTT6=
EXTT7=
EXTT8=
EXTT9=
EXTT10=
PLAYORDER=
